<?xml version="1.0" encoding="utf-8"?>
<!-- License: CC Attribution. Made by vectordoodle: https://vectordoodle.gumroad.com/l/FOCLd -->
<svg width="800px" height="800px" viewBox="0 0 400 400" fill="none" xmlns="http://www.w3.org/2000/svg">
<path d="M144.434 128.076C141.751 115.682 142.695 102.668 149.256 91.5719C199.209 7.09032 308.184 109.026 233.642 149.047C222.754 154.894 181.021 170.794 149.256 149.047" stroke="#889EAA" stroke-opacity="1.0" stroke-width="16" stroke-linecap="round" stroke-linejoin="round"/>
<path d="M147.578 111.297C187.797 66.4103 186.453 106.212 197.533 111.297C199.399 112.153 203.199 102.665 204.085 101.527C222.729 77.5762 254.629 85.7764 258.953 113.551" stroke="#889EAA" stroke-opacity="1.0" stroke-width="16" stroke-linecap="round" stroke-linejoin="round"/>
<path d="M95.3215 266.006C83.7395 246.837 104.676 183.999 123.822 171.678" stroke="#889EAA" stroke-opacity="1.0" stroke-width="16" stroke-linecap="round" stroke-linejoin="round"/>
<path d="M124.881 204.986C114.818 255.433 116.775 288.063 143.834 306.57C186.193 335.541 266.324 322.764 276.1 254.507C278.823 235.492 276.8 215.243 269.703 197.242" stroke="#889EAA" stroke-opacity="1.0" stroke-width="16" stroke-linecap="round" stroke-linejoin="round"/>
<path d="M268.047 163.723C293.253 175.448 316.659 245.704 304.523 253.505" stroke="#889EAA" stroke-opacity="1.0" stroke-width="16" stroke-linecap="round" stroke-linejoin="round"/>
<path d="M174.287 119.586C174.43 117.999 174.194 115.796 174.571 114.285" stroke="#889EAA" stroke-opacity="1.0" stroke-width="16" stroke-linecap="round" stroke-linejoin="round"/>
<path d="M222.02 117.127C222.02 115.232 222.02 113.339 222.02 111.444" stroke="#889EAA" stroke-opacity="1.0" stroke-width="16" stroke-linecap="round" stroke-linejoin="round"/>
<path d="M183.08 327.21C183.865 330.21 183.648 333.173 183.648 336.302" stroke="#889EAA" stroke-opacity="1.0" stroke-width="16" stroke-linecap="round" stroke-linejoin="round"/>
<path d="M216.037 323.801C216.861 324.629 216.585 335.859 216.605 336.302" stroke="#889EAA" stroke-opacity="1.0" stroke-width="16" stroke-linecap="round" stroke-linejoin="round"/>
<path d="M211.223 338.521C220.721 338.865 229.143 337.438 238.498 337.438" stroke="#889EAA" stroke-opacity="1.0" stroke-width="16" stroke-linecap="round" stroke-linejoin="round"/>
<path d="M188.493 338.575C179.74 339.954 171.017 340.948 162.354 341.985" stroke="#889EAA" stroke-opacity="1.0" stroke-width="16" stroke-linecap="round" stroke-linejoin="round"/>
<path d="M195.312 131.333C194.554 131.333 193.797 131.333 193.039 131.333" stroke="#889EAA" stroke-opacity="1.0" stroke-width="16" stroke-linecap="round" stroke-linejoin="round"/>
</svg>